PathFileType	4	(X/Y/Z)	Patient4_TMGait_0pt5_02_left_41.trc.trc
DataRate	CameraRate	NumFrames	NumMarkers	Units	OrigDataRate	OrigDataStartFrame	OrigNumFrames
76.923076923077	76.923076923077	5	33	mm	76.923076923077	18	       141
Frame#	Time	Sacral			L.Shoulder			Chest			R.Shoulder			Neck			R.ASIS			L.ASIS			R.Thigh.Superior			R.Thigh.Lateral			R.Thigh.Inferior			R.Patella			L.Thigh.Superior			L.Thigh.Lateral			L.Thigh.Inferior			L.Patella			L.Shank.Superior			L.Shank.Lateral			L.Shank.Inferior			R.Shank.Superior			R.Shank.Lateral			R.Shank.Inferior			R.Heel			R.Midfoot.Superior			R.Midfoot.Lateral			R.Toe			L.Heel			L.Midfoot.Lateral			L.Midfoot.Superior			L.Toe			L.Elbow			L.Wrist			R.Elbow			R.Wrist			
		X1	Y1	Z1	X2	Y2	Z2	X3	Y3	Z3	X4	Y4	Z4	X5	Y5	Z5	X6	Y6	Z6	X7	Y7	Z7	X8	Y8	Z8	X9	Y9	Z9	X10	Y10	Z10	X11	Y11	Z11	X12	Y12	Z12	X13	Y13	Z13	X14	Y14	Z14	X15	Y15	Z15	X16	Y16	Z16	X17	Y17	Z17	X18	Y18	Z18	X19	Y19	Z19	X20	Y20	Z20	X21	Y21	Z21	X22	Y22	Z22	X23	Y23	Z23	X24	Y24	Z24	X25	Y25	Z25	X26	Y26	Z26	X27	Y27	Z27	X28	Y28	Z28	X29	Y29	Z29	X30	Y30	Z30	X31	Y31	Z31	X32	Y32	Z32	X33	Y33	Z33	

18	53.111000000000	686.989614244148	1015.601021304158	514.657117093995	873.590208339374	1428.460714580612	313.382594673589	987.967731744371	1351.329612481505	462.247316641839	931.450455387186	1434.749035618315	642.637939976043	894.984361546023	1490.345560595728	462.225574011023	916.399091814448	935.456783152626	611.666285703170	883.502778689833	958.831420814341	338.048434131918	931.330814447407	728.409389563057	575.864002865994	843.651278752636	628.784145933374	641.882302789720	903.465765310470	569.699205692599	553.940207411863	892.174397795036	481.862595047681	558.100197035174	960.562711705871	779.906620498653	375.609529212559	919.034133474624	653.574818155919	295.822087610001	1016.178452579946	594.506691794816	366.002332306512	1044.678124121615	530.592944185482	364.049473052537	1030.963552488176	458.524833114684	351.177712965163	974.169225067817	327.392778613726	293.033831554556	1059.071095448304	230.433790427543	354.563852556114	856.969633017860	395.817215748433	566.932299246136	781.023051891177	298.470651939979	632.371552247034	806.796903292385	201.561322882398	565.524069865944	657.570003326285	43.380342913786	541.826131188748	829.947183240790	96.256845684163	571.223628636775	742.929816426028	36.678468013922	614.068902276515	950.854932946243	42.225888447401	596.841094432088	978.905362783050	46.916736545691	386.627075569431	1056.630538784634	55.755726911434	310.762105264970	1123.116726507813	135.258448637885	335.571125444037	1258.569015273115	111.954512739514	316.747342755090	733.445549761966	1096.758775326290	224.738629434658	690.389497633391	841.033450088367	240.293872283358	1074.766298109301	1134.411584801225	749.861493897797	1272.113179488566	1236.886817275140	637.878315406323	
19	53.124000000000	687.818110353134	1014.703164810441	512.870620001721	872.669854093457	1428.145034277036	311.768674679245	987.493825936491	1351.242201811695	460.322266917347	930.938481666947	1434.256342150605	640.802273842665	894.039109906878	1489.865193855231	460.686277841829	917.160012475071	935.127018888436	610.160792077488	884.462243972039	957.673395885060	336.457756172985	930.125699896111	727.449953879362	574.917256644380	841.393496854193	628.352993803293	641.098093455932	900.818854057410	568.552823607077	553.573168065841	888.515816146880	480.926979637928	557.634027337491	961.248716024601	778.173184352046	373.692328508129	917.279077701058	650.972953413068	295.779342879530	1015.203554939634	592.050330276588	364.622149531374	1042.389950339254	527.606129910145	363.608065438650	1028.355156762233	455.465542666028	351.248942675009	970.102186713051	324.618153991264	294.341625447764	1054.631657780942	227.365838202664	355.721051575245	852.780472606645	395.181191264683	566.527232764676	776.171629600085	298.467260628397	632.140548135978	801.140546475343	201.263878636247	565.367535737914	651.035881022077	43.437560164558	541.872193440431	823.442963199659	96.199299290047	571.242337913210	736.378044686817	36.643622395522	614.064222442674	944.300343199417	42.014789827508	596.892639742943	972.666368418211	45.875781645619	389.241530114476	1050.036759414438	52.911885581612	312.860393314869	1118.126092358345	130.960684253818	337.016374034771	1252.881532099806	104.865928421149	317.519855150821	729.444733008662	1098.207224415689	223.739672589541	684.692962872025	842.698654117856	240.454541280048	1079.505389401081	1136.691344436008	745.871136532270	1271.377140883644	1246.492593050166	632.087390374156	
20	53.137000000000	688.858368169071	1013.683198795542	510.858376632463	871.788297141064	1427.749418669386	309.979215005800	987.038239254359	1351.149473845969	458.284745118330	930.305298542569	1433.688490166159	638.856504411588	893.028565332829	1489.327762412742	458.991402306155	918.117978860492	934.763107810757	608.586608768092	885.762299763178	956.354106625795	334.816517596832	929.110921881739	726.437141905725	574.034869859260	839.136773972556	627.933335641652	640.287102969280	898.174106817443	567.375714599617	553.232492585855	884.809297707807	479.964830448413	557.159637508931	962.170700593614	776.116817477624	371.780350218705	915.603818366957	648.169900993047	295.775479237896	1014.178740890949	589.270733096898	363.450568468787	1039.834672057796	524.118491861920	363.411238328815	1025.318666368510	451.904890150595	351.472481736691	965.223210224156	321.586086259901	295.604609426601	1048.921638451966	223.700790809130	356.931546502013	848.550269449817	394.540769900782	566.116647214457	771.258495641928	298.472285302357	631.909538802315	795.462565573503	200.974306431792	565.212540716644	644.497887813350	43.477684716724	541.917347752273	816.933318011190	96.148466322629	571.258975152393	729.827322441253	36.602893294646	614.061733669626	937.735089122177	41.803450312899	596.949283057977	964.423216206065	44.578207990558	391.496469589165	1041.573288827114	49.741582309346	314.715442015533	1111.515665703744	125.939288484976	338.592568831363	1245.529452831938	96.549801046133	318.532107124103	726.036747445432	1099.331831807555	222.530244996077	680.231910751082	843.922900473446	240.269559561497	1083.359949624456	1138.515168271692	742.038278119523	1270.186267212459	1254.461922576324	626.596558789937	
21	53.150000000000	690.063282766522	1012.576958887600	508.655032053614	870.979837596832	1427.262697806639	307.996686362203	986.618311487112	1351.041487484571	456.135961365883	929.569138698934	1433.064686613156	636.791546205034	891.994207711822	1488.742356600850	457.112517538721	919.234171621405	934.353362381225	606.947886642336	887.344579655630	954.914054168533	333.139859434508	928.311352684249	725.373169608873	573.211914503640	836.932067430547	627.521158808987	639.425755695444	895.584015260881	566.184982726314	552.871301064979	881.134523086146	478.963524488177	556.636501194593	963.235780215049	773.771466468067	369.948178358279	914.048378367920	645.306168927479	295.731180608832	1013.063215210880	586.272289928636	362.516312683848	1037.034608420576	520.307648088266	363.429516280364	1021.961681861681	448.048130713183	351.783576925480	959.843870862390	318.421414599962	296.728128161922	1042.369392862599	219.687250208883	358.137337135724	844.332067679362	393.888545167267	565.666045972394	766.326293643721	298.492204472956	631.654568049096	789.789384473227	200.695147571976	565.041126822588	637.957372504096	43.523032564838	541.963825792444	810.428963409689	96.111416306476	571.270039330419	723.282424465783	36.569794367621	614.062958000049	931.166576745961	41.587759201725	597.011977448237	954.865705623637	43.129961968303	393.335420699147	1031.925974868315	46.475290183397	316.279749338045	1103.820733331119	120.551571568463	340.255869812255	1237.091140094808	87.606868347929	319.769393010590	723.275213949392	1100.076449135607	221.090664650110	677.004138493765	844.661315832633	239.731103347341	1086.313725761140	1139.816293336007	738.406628320359	1268.623305894431	1260.807619580264	621.420277283992	
22	53.163000000000	691.371129443367	1011.437962271897	506.303499458426	870.276452525464	1426.688500826030	305.810418729559	986.251961875746	1350.920297191314	453.879311924570	928.759656479775	1432.420968582724	634.600175821098	890.985746665868	1488.132755630511	455.025773650183	920.455869066120	933.899841051392	605.243375816479	889.125680946277	953.422461477550	331.436737769385	927.743825332345	724.275391874741	572.418909573593	834.849755474185	627.115336163255	638.479374984135	893.128227506464	565.006790925739	552.429569876671	877.607567469965	477.909972329643	556.018286192425	964.364493798908	771.238171223436	368.258883853065	912.668130623734	642.550481695585	295.575895741633	1011.862389553347	583.216007867597	361.817748286989	1034.074349867423	516.404884147353	363.600097124575	1018.437630302459	444.136203084412	352.103716786323	954.292051048974	315.290657357640	297.628015389514	1035.412178563468	215.606807078349	359.273467903805	840.205669285146	393.220326689381	565.135554910237	761.439288804204	298.543789034371	631.347264173287	784.160253772133	200.436311151169	564.835072760633	631.418204461854	43.615941824074	542.015689257364	803.948838088330	96.098686144189	571.275205832793	716.750322611823	36.567276126226	614.069345719934	924.607176699837	41.360602524308	597.081934398254	944.676395020573	41.665117269714	394.750366327256	1021.750112841524	43.355013109415	317.527590097756	1095.558273121349	115.184801943372	341.933809547920	1228.119867819448	78.671687802004	321.146237623876	721.223317314250	1100.398281620449	219.404728667751	675.012414350401	844.885079009310	238.831551909424	1088.353876445477	1140.548631388207	735.007179825030	1266.767193290733	1265.548078639371	616.570536947096	
